# xmcd
#
# Track frame offsets: 
#        150
#        14896
#        31942
#        45473
#        68496
#        86711
#        104185
#        125483
#        143337
#        158498
#        180972
#        198475
#        217897
#        236915
#        266418
#
# Disc length: 3861 seconds
#
# Revision: 0
# Processed by: cddbd v1.5.2PL0 Copyright (c) Steve Scherf et al.
# Submitted via: ExactAudioCopyFreeDBPlugin 1.0
#
DISCID=c90f130f
DTITLE=Paterok, Ulbricht, Cunz, Schlömer, Schräder - TitelThe Krug Ses
DTITLE=sion - Boogie woogies and Blues Piano
DYEAR=2011
DGENRE=Boogie-Woogie
TTITLE0=Die jungen Wilden
TTITLE1=Generation Swtomp
TTITLE2=Take The A Train
TTITLE3=Wake Up Call
TTITLE4=Mr. Freddies' Blues
TTITLE5=Kinderhaus sSecial
TTITLE6=Boogie Woogie Stomp
TTITLE7=Bass Going Lazy
TTITLE8=Red Sails In The Sunset
TTITLE9=Boogie Woogie Be With Me
TTITLE10=Smokey Foot Stomp
TTITLE11=Blues For A Beer
TTITLE12=Sixth Avenue Express
TTITLE13=The Krug Session
TTITLE14=The Higher We Jump
EXTD=
EXTT0=
EXTT1=
EXTT2=
EXTT3=
EXTT4=
EXTT5=
EXTT6=
EXTT7=
EXTT8=
EXTT9=
EXTT10=
EXTT11=
EXTT12=
EXTT13=
EXTT14=
PLAYORDER=
